<svg width="41" height="41" viewBox="0 0 41 41" fill="none" xmlns="http://www.w3.org/2000/svg">
<path d="M35.7577 8.43044C37.8422 9.19186 39.2642 10.4886 40.0237 12.3207C40.3875 13.1014 40.6118 13.8527 40.6967 14.5747C40.824 15.6576 40.7458 16.536 40.4623 17.2098C40.1787 17.8835 40.0423 18.2655 40.0529 18.3558L39.0999 20.6636L36.7325 21.3536L34.4833 21.8924C33.7678 21.9765 32.4131 22.4102 30.4194 23.1935C31.6519 24.4211 32.7578 25.3432 33.7372 25.9601L35.5382 27.3953L37.3551 28.9658L37.3732 31.434C37.5277 33.5202 36.79 35.3452 35.1601 36.9092C34.0139 37.9589 32.6805 38.573 31.1598 38.7518C30.2653 38.8569 29.5892 38.8906 29.1313 38.853L26.905 38.4284L25.5929 36.5241L24.415 34.6039C23.4191 33.0741 22.605 31.9346 21.9728 31.1855C21.3057 32.4533 20.7333 33.7557 20.2556 35.0928L19.5551 37.2337L18.4838 39.6927L16.1005 40.2473C15.4061 40.5119 14.88 40.6652 14.5223 40.7073C13.27 40.8545 11.8699 40.5158 10.322 39.6913C8.65287 38.6066 7.51212 37.0023 6.89975 34.8785L6.34501 32.4734L7.88243 30.5086C8.82854 29.2994 9.30159 28.6949 9.30159 28.6949C10.1112 27.8678 10.9732 26.7143 11.8875 25.2344C9.86656 25.0145 8.45357 24.9519 7.64853 25.0465L5.46992 25.0281L3.00705 24.9058L1.54492 22.8818C1.53431 22.7916 1.31298 22.4516 0.880934 21.862C0.448887 21.2723 0.16922 20.436 0.0419346 19.353C-0.0429224 18.6311 0.00109119 17.8482 0.173976 17.0044C0.477316 14.956 1.55989 13.3648 3.42171 12.2311L5.4253 10.7604L7.98363 11.6949L10.1235 12.5413C11.0817 12.9776 12.3976 13.3719 14.0713 13.7241C13.7485 11.7492 13.4105 10.4166 13.0573 9.72615L12.3843 7.47219L11.8137 4.93171L13.3511 2.9669C13.903 2.26158 14.5102 1.64125 15.1728 1.10591C15.9248 0.560062 16.9716 0.208285 18.3134 0.0505832C20.2813 -0.180713 22.1157 0.381367 23.8167 1.73682L25.7678 3.29161L25.8017 5.89517L25.6697 8.24375C25.6241 10.1705 25.6096 11.5903 25.6262 12.5033C27.4198 11.5605 28.6479 10.8215 29.3104 10.2861C29.6364 9.97335 30.2201 9.53877 31.0616 8.9824L33.4677 7.46445L35.7577 8.43044Z" fill="white"/>
<path d="M35.7577 8.43044C37.8422 9.19186 39.2642 10.4886 40.0237 12.3207C40.3875 13.1014 40.6118 13.8527 40.6967 14.5747C40.824 15.6576 40.7458 16.536 40.4623 17.2098C40.1787 17.8835 40.0423 18.2655 40.0529 18.3558L39.0999 20.6636L36.7325 21.3536L34.4833 21.8924C33.7678 21.9765 32.4131 22.4102 30.4194 23.1935C31.6519 24.4211 32.7578 25.3432 33.7372 25.9601L35.5382 27.3953L37.3551 28.9658L37.3732 31.434C37.5277 33.5202 36.79 35.3452 35.1601 36.9092C34.0139 37.9589 32.6805 38.573 31.1598 38.7518C30.2653 38.8569 29.5892 38.8906 29.1313 38.853L26.905 38.4284L25.5929 36.5241L24.415 34.6039C23.4191 33.0741 22.605 31.9346 21.9728 31.1855C21.3057 32.4533 20.7333 33.7557 20.2556 35.0928L19.5551 37.2337L18.4838 39.6927L16.1005 40.2473C15.4061 40.5119 14.88 40.6652 14.5223 40.7073C13.27 40.8545 11.8699 40.5158 10.322 39.6913C8.65287 38.6066 7.51212 37.0023 6.89975 34.8785L6.34501 32.4734L7.88243 30.5086C8.82854 29.2994 9.30159 28.6949 9.30159 28.6949C10.1112 27.8678 10.9732 26.7143 11.8875 25.2344C9.86656 25.0145 8.45357 24.9519 7.64853 25.0465L5.46992 25.0281L3.00705 24.9058L1.54492 22.8818C1.53431 22.7916 1.31298 22.4516 0.880934 21.862C0.448887 21.2723 0.16922 20.436 0.0419346 19.353C-0.0429224 18.6311 0.00109119 17.8482 0.173976 17.0044C0.477316 14.956 1.55989 13.3648 3.42171 12.2311L5.4253 10.7604L7.98363 11.6949L10.1235 12.5413C11.0817 12.9776 12.3976 13.3719 14.0713 13.7241C13.7485 11.7492 13.4105 10.4166 13.0573 9.72615L12.3843 7.47219L11.8137 4.93171L13.3511 2.9669C13.903 2.26158 14.5102 1.64125 15.1728 1.10591C15.9248 0.560062 16.9716 0.208285 18.3134 0.0505832C20.2813 -0.180713 22.1157 0.381367 23.8167 1.73682L25.7678 3.29161L25.8017 5.89517L25.6697 8.24375C25.6241 10.1705 25.6096 11.5903 25.6262 12.5033C27.4198 11.5605 28.6479 10.8215 29.3104 10.2861C29.6364 9.97335 30.2201 9.53877 31.0616 8.9824L33.4677 7.46445L35.7577 8.43044Z" fill="url(#paint0_radial_137_542)"/>
<defs>
<radialGradient id="paint0_radial_137_542" cx="0" cy="0" r="1" gradientUnits="userSpaceOnUse" gradientTransform="translate(20.7114 19.8743) rotate(-35.5592) scale(27.9286 27.2474)">
<stop stop-color="#5242F5"/>
<stop offset="0.243298" stop-color="#1FA1FD"/>
<stop offset="0.563865" stop-color="#D086FF"/>
<stop offset="0.77483" stop-color="#FD5538"/>
</radialGradient>
</defs>
</svg>
